# xmcd CD database file
#
# Track frame offsets:
#	150
#	13321
#	25657
#	37428
#	50787
#	63690
#	77914
#	91135
#	103306
#	116925
#	126702
#	138283
#	149069
#	161348
#	175081
#	187860
#	200108
#	213277
#
# Disc length: 3011 seconds
#
# Revision: 0
# Processed by: cddbd v1.5.2PL0 Copyright (c) Steve Scherf et al.
# Submitted via: CDex 1.51
#
DISCID=1d0bc112
DTITLE=Hank Williams - Your Cheatin' Heart [CD1]
DYEAR=2003
DGENRE=Country
TTITLE0=Hey Good Lookin'
TTITLE1=Cold Cold Heart 
TTITLE2=Kaw-Liga
TTITLE3=You're Gonna Change (Or I'm Gonna Leave)
TTITLE4=Picture from Life's Other Side
TTITLE5=Men with Broken Hearts
TTITLE6=Help Me Understand
TTITLE7=I'm Sorry for You My Friend
TTITLE8=Ramblin' Man
TTITLE9=Honky Tonk Blues
TTITLE10=Dear John
TTITLE11=Moanin' the Blues
TTITLE12=Lovesick Blues
TTITLE13=I Dreamed About Mom Last Night
TTITLE14=Why Don't You Make Up Your Mind?
TTITLE15=I Won't Be Home No More
TTITLE16=Everything O.K.
TTITLE17=I'm So Lonesome I Could Cry
EXTD=YEAR: 2003
EXTT0=
EXTT1=
EXTT2=
EXTT3=
EXTT4=
EXTT5=
EXTT6=
EXTT7=
EXTT8=
EXTT9=
EXTT10=
EXTT11=
EXTT12=
EXTT13=
EXTT14=
EXTT15=
EXTT16=
EXTT17=
PLAYORDER=
